<?xml version="1.0" standalone="no"?>
<!DOCTYPE svg PUBLIC "-//W3C//DTD SVG 20010904//EN"
 "http://www.w3.org/TR/2001/REC-SVG-20010904/DTD/svg10.dtd">
<svg version="1.0" xmlns="http://www.w3.org/2000/svg"
 width="640.000000pt" height="640.000000pt" viewBox="0 0 640.000000 640.000000"
 preserveAspectRatio="xMidYMid meet">
<metadata>
Created by potrace 1.11, written by Peter Selinger 2001-2013
</metadata>
<g transform="translate(0.000000,640.000000) scale(0.100000,-0.100000)"
fill="#000000" stroke="none">
<path d="M0 3200 l0 -3200 3200 0 3200 0 0 3200 0 3200 -3200 0 -3200 0 0
-3200z m4750 1250 c0 -5 -6 -10 -12 -11 -7 0 -31 -2 -53 -4 -22 -2 -31 -1 -20
2 11 3 24 9 30 14 12 12 55 11 55 -1z m-120 -18 c0 -4 -5 -13 -12 -20 -6 -6
-8 -15 -3 -19 4 -5 10 -3 12 4 2 7 11 9 19 6 25 -9 3 -24 -31 -22 -18 2 -40
-3 -48 -10 -9 -7 -20 -11 -24 -8 -7 4 -102 -14 -228 -44 -22 -5 -116 -22 -210
-39 -397 -68 -450 -78 -590 -110 -27 -6 -58 -12 -67 -13 -9 -1 -15 -3 -13 -5
10 -10 -45 -42 -72 -42 -15 0 -41 -9 -58 -20 -72 -49 -116 -61 -220 -62 -55
-1 -109 1 -120 5 -11 3 -23 6 -27 6 -3 1 -9 20 -13 43 -6 36 -4 44 15 60 12
10 19 18 16 18 -4 0 -2 9 4 20 15 29 76 51 132 49 26 -2 53 3 62 10 12 10 36
9 126 -5 79 -12 114 -14 121 -7 7 7 34 9 67 6 62 -6 199 17 607 102 39 8 144
28 235 45 91 16 188 34 215 40 115 23 105 22 105 12z m-1162 -1144 c3 -38 27
-61 62 -63 9 0 16 -10 16 -24 2 -34 54 -71 54 -38 0 24 21 37 42 26 10 -5 16
-14 13 -19 -12 -19 -15 -210 -4 -210 7 0 10 -16 7 -39 -3 -38 -2 -40 33 -50
20 -6 44 -11 53 -11 9 0 16 -4 16 -10 0 -5 7 -10 15 -10 8 0 20 -9 27 -20 11
-18 24 -20 105 -20 76 0 93 -3 93 -15 0 -21 27 -19 39 3 19 36 117 52 178 30
29 -11 35 -10 56 10 31 29 47 28 47 -3 0 -22 4 -25 40 -25 22 0 40 -4 40 -10
0 -5 36 -9 81 -9 45 0 103 -7 132 -16 29 -8 77 -23 107 -31 30 -9 68 -23 83
-31 16 -8 39 -12 53 -9 26 7 33 -11 13 -31 -18 -18 14 -43 55 -43 20 0 36 5
36 10 0 6 11 10 25 10 23 0 25 4 25 40 0 28 4 40 14 40 8 0 17 6 20 13 3 6 4
-16 3 -50 l-3 -63 38 0 c38 0 38 0 38 -40 l0 -40 40 0 c29 0 40 4 40 15 0 11
11 15 40 15 29 0 40 -4 40 -15 0 -11 11 -15 40 -15 29 0 40 -4 40 -15 0 -13
14 -15 82 -13 71 3 83 6 86 21 10 50 82 78 112 42 10 -11 6 -22 -22 -54 -26
-32 -40 -41 -65 -41 -26 0 -33 -4 -33 -19 0 -15 -10 -19 -50 -23 -57 -6 -55
-5 -64 -35 -7 -21 -4 -23 27 -23 19 0 58 5 87 10 48 9 54 8 67 -10 8 -11 21
-20 30 -20 9 0 29 -15 45 -32 28 -32 32 -33 104 -33 41 0 74 -4 74 -8 0 -14
44 -46 63 -47 37 0 14 -19 -28 -22 -25 -2 -45 -7 -45 -13 0 -5 20 -11 45 -13
49 -3 49 -3 45 -83 l-2 -46 82 -7 c69 -6 87 -12 108 -33 23 -23 24 -30 20 -99
-6 -83 -12 -96 -33 -68 -8 11 -15 14 -15 7 0 -8 -16 -13 -42 -14 -24 0 -37 -3
-30 -6 14 -6 17 -83 2 -83 -5 0 -10 -18 -10 -40 0 -29 -4 -40 -15 -40 -8 0
-15 -5 -15 -10 0 -6 7 -13 15 -16 8 -4 15 -15 15 -25 0 -10 6 -19 13 -20 10 0
10 -2 0 -6 -7 -2 -13 -16 -13 -30 0 -22 2 -24 16 -12 14 11 18 10 30 -6 7 -11
17 -24 22 -30 4 -5 11 -18 15 -27 3 -10 13 -18 22 -18 18 0 19 -11 3 -29 -11
-11 -6 -12 23 -9 31 3 35 1 31 -14 -3 -14 -15 -18 -48 -18 -37 0 -46 -4 -53
-22 -5 -13 -5 -25 0 -29 5 -3 8 -41 7 -85 -1 -43 2 -100 7 -126 l7 -47 -51 -7
c-28 -3 -56 -13 -62 -20 -6 -8 -20 -14 -30 -14 -11 0 -19 -4 -19 -10 0 -14
-78 -12 -82 2 -3 8 -12 4 -26 -10 -22 -22 -31 -82 -12 -82 6 0 10 -18 10 -40
0 -29 4 -40 15 -40 11 0 15 -11 15 -40 0 -35 -3 -40 -22 -40 -21 0 -21 -1 -5
-17 16 -16 18 -16 33 2 8 11 13 15 10 9 -3 -7 11 -24 31 -40 20 -15 33 -22 29
-16 -5 9 6 12 38 12 42 0 46 2 46 25 0 20 5 25 25 25 14 0 34 5 45 12 22 14
39 3 22 -14 -7 -7 -12 -38 -12 -71 0 -43 -3 -57 -12 -54 -7 2 -12 14 -11 26 2
15 -3 21 -17 21 -15 0 -19 -6 -17 -22 2 -22 -2 -23 -67 -26 -50 -2 -76 -8 -94
-23 -14 -10 -42 -22 -64 -25 -21 -4 -38 -11 -38 -16 0 -13 -42 -47 -59 -48 -9
0 -11 -7 -6 -27 4 -16 8 -34 8 -40 0 -7 7 -13 15 -13 12 0 13 -14 7 -82 -9
-105 -24 -121 -106 -114 -62 4 -129 31 -129 51 0 15 -42 28 -50 16 -10 -15
-43 -21 -57 -10 -7 7 -35 14 -60 16 -26 2 -52 8 -59 14 -9 7 -79 6 -79 -1 0
-1 -36 -8 -80 -16 -119 -20 -145 -26 -145 -34 0 -4 -37 -6 -81 -5 -50 2 -77 0
-68 -6 10 -6 4 -9 -18 -9 -18 0 -33 5 -33 11 0 5 5 7 10 4 13 -8 13 15 0 35
-7 11 -11 9 -19 -13 -7 -18 -18 -27 -33 -28 -13 0 -74 -4 -137 -8 -95 -7 -127
-5 -198 10 -47 10 -89 17 -92 14 -15 -9 -1026 -16 -1039 -7 -11 7 -14 106 -14
503 -1 419 -4 497 -16 517 -23 35 -32 10 -32 -85 0 -46 -2 -83 -5 -83 -3 0
-14 5 -24 12 -10 6 -26 8 -35 5 -24 -9 -51 -77 -38 -97 7 -11 1 -23 -28 -51
-32 -31 -38 -44 -44 -95 -9 -69 -26 -145 -36 -159 -4 -5 -11 -25 -15 -43 -6
-29 -10 -33 -31 -28 l-23 6 20 -35 c12 -19 17 -35 11 -35 -5 0 -12 9 -15 21
-3 12 -10 18 -17 14 -6 -4 -8 -15 -5 -26 4 -10 2 -19 -3 -19 -15 0 -23 29 -16
56 5 20 2 24 -15 24 -18 0 -21 6 -21 40 0 28 -4 40 -14 40 -22 0 -79 58 -73
75 4 9 -8 26 -30 44 -35 29 -37 34 -34 81 1 29 0 84 -4 124 -8 87 -15 91 -145
102 -91 7 -102 12 -133 59 -13 21 -18 24 -14 9 3 -17 0 -20 -24 -16 -26 4 -29
8 -29 43 l0 39 -55 0 c-51 0 -55 -2 -55 -24 0 -13 -7 -26 -15 -30 -18 -7 -19
-30 -3 -163 l12 -103 43 0 43 0 0 -55 0 -55 -40 0 c-36 0 -40 -2 -40 -25 0
-14 -4 -25 -10 -25 -6 0 -10 33 -10 80 0 79 0 80 -25 80 -23 0 -25 4 -26 43
-2 30 -3 34 -6 14 -3 -16 -10 -26 -16 -24 -8 2 -12 39 -14 113 l-1 109 -60 21
c-33 11 -67 27 -75 35 -9 10 -18 46 -22 92 -4 42 -11 77 -16 77 -5 0 -9 37 -9
83 0 51 -5 88 -12 95 -18 18 -98 16 -98 -3 0 -8 -4 -15 -10 -15 -5 0 -10 19
-10 42 0 42 -29 88 -56 88 -6 0 -14 7 -18 15 -4 11 2 15 21 15 25 0 25 1 10
18 -10 10 -17 28 -17 40 0 13 -6 22 -15 22 -17 0 -32 47 -19 60 14 14 4 100
-11 100 -19 0 -29 146 -21 287 4 78 3 112 -5 115 -7 2 -1 19 16 43 l26 40 -25
22 c-14 12 -26 32 -26 45 -1 28 -69 85 -81 67 -12 -20 -39 -1 -39 26 0 18 7
28 25 35 27 10 86 3 96 -13 12 -18 49 5 64 39 10 24 19 33 27 28 9 -6 9 -9 0
-12 -7 -2 -12 -25 -12 -58 0 -52 11 -71 24 -39 3 8 12 15 21 15 11 0 15 -11
15 -40 0 -22 6 -58 12 -80 12 -37 16 -40 50 -40 20 0 38 -5 40 -12 5 -13 37 1
37 17 0 6 9 16 20 24 19 12 21 11 21 -8 0 -16 6 -21 25 -21 23 0 25 4 25 40 0
22 5 40 10 40 6 0 11 17 11 38 1 36 2 36 8 7 l7 -30 33 33 c18 18 43 32 56 32
20 0 24 6 27 38 3 38 3 38 64 41 20 1 21 7 23 81 2 80 2 80 -24 80 -25 0 -25
2 -24 56 2 39 5 51 11 40 6 -11 23 -16 54 -16 52 0 51 15 -1 24 -29 6 -35 11
-35 31 0 17 -6 25 -17 26 -15 0 -15 1 2 8 37 15 139 20 229 13 l89 -8 21 33
c14 22 27 32 39 29 9 -2 15 0 11 5 -3 5 6 9 21 9 14 0 28 6 30 13 3 7 27 13
62 14 39 1 65 8 84 23 16 11 33 20 38 20 22 0 81 -34 81 -47 0 -7 4 -13 8 -13
5 0 15 -11 22 -25 7 -13 21 -27 32 -31 10 -3 18 -15 18 -28 0 -33 34 -44 120
-39 110 7 130 17 130 64 0 22 5 39 10 39 6 0 10 18 10 40 0 38 -1 40 -32 41
-33 1 -32 1 6 9 21 4 43 15 48 24 8 14 22 16 71 14 l62 -3 3 -37z m132 22 c0
-5 -18 -10 -40 -10 -22 0 -40 5 -40 10 0 6 18 10 40 10 22 0 40 -4 40 -10z
m1680 -20 c0 -5 -7 -10 -16 -10 -8 0 -12 5 -9 10 3 6 10 10 16 10 5 0 9 -4 9
-10z m-1677 -20 c-6 -21 -24 -23 -30 -3 -2 6 4 13 14 16 10 3 19 5 20 6 0 0
-1 -8 -4 -19z m1372 -159 c0 -32 -48 -40 -77 -14 -19 17 -19 18 14 30 46 16
63 12 63 -16z m-1152 -85 c6 -15 -19 -30 -33 -21 -13 8 -1 35 15 35 7 0 15 -6
18 -14z m-1823 -106 c0 -29 -4 -40 -15 -40 -11 0 -15 11 -15 40 0 29 4 40 15
40 11 0 15 -11 15 -40z m3680 20 c0 -5 8 -10 18 -10 26 0 34 -11 21 -27 -13
-15 -75 -18 -84 -3 -3 6 0 10 7 10 7 0 4 6 -7 12 -19 11 -19 11 0 19 28 11 45
11 45 -1z m-364 -30 c6 -6 37 -14 70 -19 l59 -9 -45 -2 c-41 -2 -43 -3 -15
-10 29 -7 28 -9 -15 -23 -8 -3 6 -6 32 -6 35 -1 54 -7 74 -26 23 -21 25 -29
19 -62 l-8 -38 -12 45 -11 45 -15 -30 c-14 -29 -59 -49 -59 -26 0 6 5 11 10
11 16 0 11 27 -6 34 -29 11 -34 6 -34 -34 0 -22 -4 -40 -10 -40 -5 0 -10 5
-10 11 0 8 -4 8 -12 2 -7 -6 -31 -13 -53 -17 -22 -4 -47 -9 -55 -11 -8 -3 -21
4 -28 15 -10 17 -10 20 5 18 10 -1 29 0 42 0 23 2 23 3 7 21 -10 11 -15 25
-10 32 4 7 -3 5 -15 -4 -13 -8 -28 -14 -35 -12 -6 3 -35 6 -64 9 -29 3 -60 10
-68 17 -9 7 -29 9 -57 5 -41 -6 -41 -6 -17 9 14 8 32 17 42 21 9 3 18 14 21
24 3 13 0 17 -17 14 -20 -4 -20 -4 -1 5 35 17 91 12 118 -9 28 -22 57 -20 106
7 25 14 24 14 -21 10 -43 -4 -46 -3 -35 14 9 15 24 19 62 19 28 0 56 -5 61
-10z m444 -65 c0 -9 -6 -12 -16 -8 -13 5 -13 7 -2 14 17 11 18 11 18 -6z
m-3600 -13 c0 -5 18 -8 40 -7 21 1 37 -1 35 -5 -3 -4 -18 -6 -35 -5 -17 1 -33
-1 -36 -6 -3 -5 -23 -9 -45 -9 -36 0 -39 -2 -40 -27 0 -16 -3 -22 -6 -15 -3 7
-2 29 1 48 7 32 9 34 46 34 22 0 40 -4 40 -8z m3615 -22 c3 -5 1 -10 -4 -10
-6 0 -11 5 -11 10 0 6 2 10 4 10 3 0 8 -4 11 -10z m-3722 -87 c-13 -2 -35 -2
-50 0 -16 2 -5 4 22 4 28 0 40 -2 28 -4z m3227 -108 c0 -11 -11 -15 -40 -15
-29 0 -40 4 -40 15 0 11 11 15 40 15 29 0 40 -4 40 -15z m55 -45 c3 -5 -1 -10
-9 -10 -9 0 -16 5 -16 10 0 6 4 10 9 10 6 0 13 -4 16 -10z m-3735 -555 c0 -11
-11 -15 -40 -15 -29 0 -40 4 -40 15 0 11 11 15 40 15 29 0 40 -4 40 -15z
m-228 -362 c32 -56 31 -85 -3 -131 -17 -23 -37 -42 -44 -42 -33 0 -34 86 -1
135 14 20 22 43 19 51 -9 25 12 15 29 -13z m-108 -339 c12 -5 16 -20 16 -60 0
-30 -4 -54 -9 -54 -4 0 -12 -37 -17 -82 -10 -90 -31 -117 -36 -46 -2 30 -8 43
-18 43 -8 1 -13 7 -11 15 2 8 6 44 9 80 4 60 24 110 42 110 5 0 15 -3 24 -6z
m1296 -154 c0 -26 -5 -40 -13 -40 -9 0 -11 12 -9 40 2 22 8 40 13 40 5 0 9
-18 9 -40z m-483 -102 c-2 -13 -4 -3 -4 22 0 25 2 35 4 23 2 -13 2 -33 0 -45z
m-871 -115 c-10 -26 -18 -8 -9 23 5 21 8 24 11 11 2 -10 1 -25 -2 -34z m4630
20 c-10 -10 -19 5 -10 18 6 11 8 11 12 0 2 -7 1 -15 -2 -18z m-2803 -228 c-3
-9 -8 -14 -10 -11 -3 3 -2 9 2 15 9 16 15 13 8 -4z m-3 -50 c0 -8 -7 -15 -16
-15 -14 0 -14 3 -4 15 7 8 14 15 16 15 2 0 4 -7 4 -15z m-2 -43 c8 -6 14 -43
17 -113 2 -57 1 -92 -1 -76 -3 15 -10 27 -15 27 -5 0 -9 36 -9 79 0 54 -4 81
-12 84 -7 3 -8 6 -3 6 6 0 16 -3 23 -7z m131 -205 c1 -30 -3 -46 -9 -42 -6 4
-9 48 -9 103 2 89 2 92 9 42 5 -30 8 -77 9 -103z m-919 83 c0 -22 -4 -40 -10
-40 -5 0 -10 18 -10 40 0 22 5 40 10 40 6 0 10 -18 10 -40z m159 -136 c2 -2
-14 -4 -35 -4 -22 0 -45 -5 -51 -11 -13 -13 -33 -4 -33 16 0 11 13 12 58 8 31
-3 59 -7 61 -9z m321 1 c0 -8 -8 -15 -17 -16 -60 -3 -77 -6 -81 -17 -2 -7 -13
-12 -25 -12 -21 0 -21 1 3 20 14 11 41 20 60 21 30 2 28 3 -15 9 l-50 7 63 1
c49 2 62 -1 62 -13z m240 -1 c0 -8 -4 -12 -10 -9 -5 3 -10 10 -10 16 0 5 5 9
10 9 6 0 10 -7 10 -16z m-480 -4 c0 -5 -11 -10 -24 -10 -14 0 -28 5 -31 10 -4
6 7 10 24 10 17 0 31 -4 31 -10z m580 -30 c0 -16 -4 -30 -10 -30 -11 0 -14 43
-3 53 11 12 13 8 13 -23z m-196 5 c-22 -17 -34 -19 -34 -6 0 5 8 12 18 14 32
9 36 7 16 -8z m300 -34 c-6 -6 -11 1 -18 29 l-7 25 15 -25 c8 -14 12 -27 10
-29z m-227 19 c1 -11 -4 -20 -13 -20 -17 0 -19 26 -1 33 6 3 12 6 12 6 1 1 1
-8 2 -19z m-217 1 c0 -4 -11 -6 -25 -3 -14 2 -25 6 -25 8 0 2 11 4 25 4 14 0
25 -4 25 -9z m3128 2 c-10 -2 -26 -2 -35 0 -10 3 -2 5 17 5 19 0 27 -2 18 -5z
m132 -3 c0 -5 -9 -10 -20 -10 -11 0 -20 5 -20 10 0 6 9 10 20 10 11 0 20 -4
20 -10z"/>
<path d="M3360 3244 c0 -18 27 -43 46 -44 19 0 24 28 8 45 -21 20 -54 19 -54
-1z"/>
<path d="M3025 3080 c3 -5 8 -10 11 -10 2 0 4 5 4 10 0 6 -5 10 -11 10 -5 0
-7 -4 -4 -10z"/>
<path d="M2322 2868 c1 -36 2 -43 5 -20 3 25 9 32 25 32 20 0 21 1 3 20 -28
31 -35 24 -33 -32z"/>
<path d="M2080 2553 c0 -8 14 -13 40 -13 22 0 40 4 40 9 0 5 -18 11 -40 13
-28 2 -40 0 -40 -9z"/>
<path d="M1991 2494 c0 -11 3 -14 6 -6 3 7 2 16 -1 19 -3 4 -6 -2 -5 -13z"/>
<path d="M4720 2469 c0 -5 5 -7 10 -4 6 3 10 8 10 11 0 2 -4 4 -10 4 -5 0 -10
-5 -10 -11z"/>
<path d="M5360 2410 c0 -5 5 -10 11 -10 5 0 7 5 4 10 -3 6 -8 10 -11 10 -2 0
-4 -4 -4 -10z"/>
<path d="M5477 1853 c-14 -13 -6 -33 12 -33 25 0 38 20 20 31 -17 11 -24 11
-32 2z"/>
<path d="M5920 1796 c0 -9 5 -16 10 -16 6 0 10 4 10 9 0 6 -4 13 -10 16 -5 3
-10 -1 -10 -9z"/>
<path d="M1840 1775 c0 -8 7 -15 16 -15 14 0 14 3 4 15 -7 8 -14 15 -16 15 -2
0 -4 -7 -4 -15z"/>
<path d="M2723 1080 c0 -25 2 -35 4 -22 2 12 2 32 0 45 -2 12 -4 2 -4 -23z"/>
<path d="M5908 713 c17 -2 47 -2 65 0 17 2 3 4 -33 4 -36 0 -50 -2 -32 -4z"/>
<path d="M5120 490 c0 -5 5 -10 11 -10 5 0 7 5 4 10 -3 6 -8 10 -11 10 -2 0
-4 -4 -4 -10z"/>
<path d="M5034 388 c3 -17 36 -23 36 -8 0 7 -6 10 -14 7 -8 -3 -17 -2 -20 4
-2 5 -3 4 -2 -3z"/>
<path d="M5375 389 c-10 -15 3 -25 16 -12 7 7 7 13 1 17 -6 3 -14 1 -17 -5z"/>
<path d="M5681 363 c-1 -31 -6 -43 -18 -46 -12 -3 -9 -5 7 -6 24 -1 26 2 22
37 -5 55 -10 62 -11 15z"/>
</g>
</svg>
